<?xml version="1.0" encoding="utf-8"?>
<!-- Generator: Adobe Illustrator 16.0.0, SVG Export Plug-In . SVG Version: 6.00 Build 0)  -->
<!DOCTYPE svg PUBLIC "-//W3C//DTD SVG 1.1//EN" "http://www.w3.org/Graphics/SVG/1.1/DTD/svg11.dtd">
<svg version="1.1" id="Layer_1" xmlns="http://www.w3.org/2000/svg" xmlns:xlink="http://www.w3.org/1999/xlink" x="0px" y="0px"
	 width="792px" height="31.116px" viewBox="0 0 792 31.116" enable-background="new 0 0 792 31.116" xml:space="preserve">
<polygon fill="#4C6592" points="0,31.116 14.774,5.333 29.547,31.116 "/>
<polygon fill="#4C6592" points="22.063,31.116 36.836,5.333 51.61,31.116 "/>
<polygon fill="#4C6592" points="42.307,31.116 57.081,5.333 71.854,31.116 "/>
<polygon fill="#4C6592" points="64.37,31.116 79.144,5.333 93.917,31.116 "/>
<polygon fill="#4C6592" points="85.296,31.115 100.07,5.333 114.843,31.115 "/>
<polygon fill="#4C6592" points="107.359,31.116 122.133,5.333 136.906,31.116 "/>
<polygon fill="#4C6592" points="127.603,31.115 142.376,5.333 157.15,31.115 "/>
<polygon fill="#4C6592" points="149.666,31.115 164.44,5.333 179.213,31.115 "/>
<polygon fill="#4C6592" points="167.852,31.116 182.625,5.333 197.398,31.116 "/>
<polygon fill="#4C6592" points="189.914,31.116 204.688,5.333 219.461,31.116 "/>
<polygon fill="#4C6592" points="210.158,31.116 224.932,5.333 239.705,31.116 "/>
<polygon fill="#4C6592" points="232.221,31.116 246.995,5.333 261.769,31.116 "/>
<polygon fill="#4C6592" points="253.147,31.115 267.921,5.333 282.694,31.115 "/>
<polygon fill="#4C6592" points="275.21,31.116 289.984,5.333 304.758,31.116 "/>
<polygon fill="#4C6592" points="295.454,31.115 310.228,5.333 325.002,31.115 "/>
<polygon fill="#4C6592" points="317.518,31.115 332.291,5.333 347.064,31.115 "/>
<polygon fill="#4C6592" points="339.388,31.116 354.162,5.333 368.936,31.116 "/>
<polygon fill="#4C6592" points="361.451,31.116 376.224,5.333 390.997,31.116 "/>
<polygon fill="#4C6592" points="381.694,31.116 396.467,5.333 411.241,31.116 "/>
<polygon fill="#4C6592" points="403.758,31.116 418.531,5.333 433.305,31.116 "/>
<polygon fill="#4C6592" points="424.684,31.115 439.457,5.333 454.23,31.115 "/>
<polygon fill="#4C6592" points="446.745,31.116 461.521,5.333 476.292,31.116 "/>
<polygon fill="#4C6592" points="466.989,31.115 481.764,5.333 496.536,31.115 "/>
<polygon fill="#4C6592" points="489.053,31.115 503.827,5.333 518.601,31.115 "/>
<polygon fill="#4C6592" points="507.239,31.116 522.013,5.333 536.786,31.116 "/>
<polygon fill="#4C6592" points="529.302,31.116 544.074,5.333 558.851,31.116 "/>
<polygon fill="#4C6592" points="549.545,31.116 564.318,5.333 579.093,31.116 "/>
<polygon fill="#4C6592" points="571.609,31.116 586.382,5.333 601.156,31.116 "/>
<polygon fill="#4C6592" points="592.534,31.115 607.309,5.333 622.082,31.115 "/>
<polygon fill="#4C6592" points="614.599,31.116 629.372,5.333 644.146,31.116 "/>
<polygon fill="#4C6592" points="634.843,31.115 649.616,5.333 664.39,31.115 "/>
<polygon fill="#4C6592" points="656.904,31.115 671.678,5.333 686.451,31.115 "/>
<polygon fill="#4C6592" points="677.157,31.116 691.931,5.333 706.705,31.116 "/>
<polygon fill="#4C6592" points="698.084,31.115 712.857,5.333 727.63,31.115 "/>
<polygon fill="#4C6592" points="720.147,31.116 734.921,5.333 749.694,31.116 "/>
<polygon fill="#4C6592" points="740.391,31.115 755.165,5.333 769.938,31.115 "/>
<polygon fill="#4C6592" points="762.453,31.115 777.227,5.333 792,31.115 "/>
</svg>
