<?xml version="1.0" encoding="utf-8"?>
<!-- Generator: Adobe Illustrator 16.0.0, SVG Export Plug-In . SVG Version: 6.00 Build 0)  -->
<!DOCTYPE svg PUBLIC "-//W3C//DTD SVG 1.1//EN" "http://www.w3.org/Graphics/SVG/1.1/DTD/svg11.dtd">
<svg version="1.1" id="Layer_1" xmlns="http://www.w3.org/2000/svg" xmlns:xlink="http://www.w3.org/1999/xlink" x="0px" y="0px"
	 width="792px" height="31.116px" viewBox="0 0 792 31.116" enable-background="new 0 0 792 31.116" xml:space="preserve">
<polygon fill="#4C6592" points="0,0 14.774,25.783 29.547,0 "/>
<polygon fill="#4C6592" points="22.063,0 36.836,25.783 51.61,0 "/>
<polygon fill="#4C6592" points="42.307,0 57.081,25.783 71.854,0 "/>
<polygon fill="#4C6592" points="64.37,0 79.144,25.783 93.917,0 "/>
<polygon fill="#4C6592" points="85.296,0 100.07,25.783 114.843,0 "/>
<polygon fill="#4C6592" points="107.359,0 122.133,25.783 136.906,0 "/>
<polygon fill="#4C6592" points="127.603,0 142.376,25.783 157.15,0 "/>
<polygon fill="#4C6592" points="149.666,0 164.44,25.783 179.213,0 "/>
<polygon fill="#4C6592" points="167.852,0 182.625,25.783 197.398,0 "/>
<polygon fill="#4C6592" points="189.914,0 204.688,25.783 219.461,0 "/>
<polygon fill="#4C6592" points="210.158,0 224.932,25.783 239.705,0 "/>
<polygon fill="#4C6592" points="232.221,0 246.995,25.783 261.769,0 "/>
<polygon fill="#4C6592" points="253.147,0 267.921,25.783 282.694,0 "/>
<polygon fill="#4C6592" points="275.21,0 289.984,25.783 304.758,0 "/>
<polygon fill="#4C6592" points="295.454,0 310.228,25.783 325.002,0 "/>
<polygon fill="#4C6592" points="317.518,0 332.291,25.783 347.064,0 "/>
<polygon fill="#4C6592" points="339.388,0 354.162,25.783 368.936,0 "/>
<polygon fill="#4C6592" points="361.451,0 376.224,25.783 390.997,0 "/>
<polygon fill="#4C6592" points="381.694,0 396.467,25.783 411.241,0 "/>
<polygon fill="#4C6592" points="403.758,0 418.531,25.783 433.305,0 "/>
<polygon fill="#4C6592" points="424.684,0 439.457,25.783 454.23,0 "/>
<polygon fill="#4C6592" points="446.745,0 461.521,25.783 476.292,0 "/>
<polygon fill="#4C6592" points="466.989,0 481.764,25.783 496.536,0 "/>
<polygon fill="#4C6592" points="489.053,0 503.827,25.783 518.601,0 "/>
<polygon fill="#4C6592" points="507.239,0 522.013,25.783 536.786,0 "/>
<polygon fill="#4C6592" points="529.302,0 544.074,25.783 558.851,0 "/>
<polygon fill="#4C6592" points="549.545,0 564.318,25.783 579.093,0 "/>
<polygon fill="#4C6592" points="571.609,0 586.382,25.783 601.156,0 "/>
<polygon fill="#4C6592" points="592.534,0 607.309,25.783 622.082,0 "/>
<polygon fill="#4C6592" points="614.599,0 629.372,25.783 644.146,0 "/>
<polygon fill="#4C6592" points="634.843,0 649.616,25.783 664.39,0 "/>
<polygon fill="#4C6592" points="656.904,0 671.678,25.783 686.451,0 "/>
<polygon fill="#4C6592" points="677.157,0 691.931,25.783 706.705,0 "/>
<polygon fill="#4C6592" points="698.084,0 712.857,25.783 727.63,0 "/>
<polygon fill="#4C6592" points="720.147,0 734.921,25.783 749.694,0 "/>
<polygon fill="#4C6592" points="740.391,0 755.165,25.783 769.938,0 "/>
<polygon fill="#4C6592" points="762.453,0 777.227,25.783 792,0 "/>
</svg>
