<?xml version="1.0" encoding="utf-8"?>
<!-- Generator: Adobe Illustrator 16.0.0, SVG Export Plug-In . SVG Version: 6.00 Build 0)  -->
<!DOCTYPE svg PUBLIC "-//W3C//DTD SVG 1.1//EN" "http://www.w3.org/Graphics/SVG/1.1/DTD/svg11.dtd">
<svg version="1.1" id="Layer_1" xmlns="http://www.w3.org/2000/svg" xmlns:xlink="http://www.w3.org/1999/xlink" x="0px" y="0px"
	 width="792px" height="245.206px" viewBox="0 0 792 245.206" enable-background="new 0 0 792 245.206" xml:space="preserve">
<path fill="#4C6592" d="M700.484,129.28c3.484-5.579,5.516-12.125,5.516-19.075c0-19.897-16.604-36.5-36.5-36.5
	c-1.865,0-3.701,0.146-5.497,0.427c-6.732-8.439-17.07-13.927-28.503-13.927c-2.222,0-4.398,0.218-6.519,0.613
	C622.724,49.506,610.637,41.706,597,41.706c-6.129,0-11.942,1.58-17.058,4.342c-5.325-3.068-11.456-4.842-17.942-4.842
	c-11.236,0-21.42,5.297-28.158,13.49c-6.497-5.875-15.061-9.49-24.342-9.49c-13.669,0-25.783,7.836-32.028,19.194
	c-6.685-9.154-17.476-15.194-29.472-15.194c-11.113,0-21.195,5.183-27.935,13.223c-6.721-7.467-16.42-12.223-27.065-12.223
	c-13.784,0-25.981,7.971-32.179,19.482c-6.696-9.036-17.417-14.982-29.321-14.982c-7.078,0-13.732,2.109-19.377,5.711
	c-6.708-8.885-17.337-14.711-29.123-14.711c-3.715,0-7.315,0.58-10.714,1.651c-6.737-8.283-16.977-13.651-28.286-13.651
	c-11.024,0-21.032,5.103-27.77,13.033c-8.724,0.311-16.744,3.811-22.925,9.341c-6.599-9.813-17.799-16.374-30.305-16.374
	c-2.107,0-4.174,0.197-6.192,0.554c-5.409-3.199-11.673-5.054-18.308-5.054c-19.897,0-36.5,16.603-36.5,36.5
	c0,4.873,1.001,9.545,2.797,13.827C97.576,92.236,93,101.765,93,112.206c0,10.028,4.221,19.216,10.952,25.867
	c-0.295,1.84-0.452,3.721-0.452,5.633c0,19.897,16.603,36.5,36.5,36.5c0.819,0,1.63-0.038,2.438-0.094
	c6.163,4.744,13.828,7.594,22.062,7.594c10.065,0,19.283-4.253,25.939-11.027c0.353,0.01,0.705,0.027,1.061,0.027
	c7.892,0,15.26-2.619,21.284-7.012c6.346,5.295,14.461,8.512,23.216,8.512c0.838,0,1.668-0.04,2.493-0.098
	c6.662,6.815,15.907,11.098,26.007,11.098c9.894,0,18.972-4.108,25.6-10.683c2.24,0.443,4.546,0.683,6.9,0.683
	c8.566,0,16.517-3.083,22.8-8.176c6.727,8.58,17.155,14.176,28.7,14.176c8.041,0,15.542-2.714,21.629-7.259
	c6.735,8.344,17.013,13.759,28.371,13.759c7.48,0,14.495-2.348,20.337-6.334c6.476,5.781,14.966,9.334,24.163,9.334
	c8.127,0,15.702-2.772,21.823-7.405c5.708,3.72,12.474,5.905,19.677,5.905c9.229,0,17.745-3.576,24.229-9.392
	c6.547,6.11,15.282,9.892,24.771,9.892c11.641,0,22.148-5.688,28.869-14.39c6.213,11.462,18.384,19.39,32.131,19.39
	c6.825,0,13.262-1.954,18.774-5.324c6.153,4.389,13.597,6.824,21.226,6.824h0.5c9.642,0,18.995-3.876,25.81-10.69
	c0.248-0.249,0.484-0.507,0.725-0.762c4.045,1.577,8.417,2.453,12.966,2.453c19.896,0,36.5-16.603,36.5-36.5
	C711,144.897,706.96,135.894,700.484,129.28z"/>
<rect x="200" y="76.353" fill="none" width="473" height="92.5"/>
<text transform="matrix(1 0 0 1 200 138.2051)" fill="#FFFFFF" font-family="'Futura-Medium'" font-size="75">Advertising</text>
</svg>
